<svg width="160" height="100" viewBox="0 0 160 100" fill="none" xmlns="http://www.w3.org/2000/svg">
	<path
		d="M48.1383 13.114C49.1614 12.3548 50.2024 11.8896 51.2615 11.7183C52.3229 11.531 53.3346 11.6521 54.2965 12.0817C55.2607 12.4952 56.1053 13.1905 56.8302 14.1675C57.5551 15.1444 57.9723 16.1497 58.0818 17.1832C58.2004 18.2098 58.0163 19.2039 57.5293 20.1655C57.0447 21.111 56.2909 21.9633 55.2678 22.7224L52.1295 25.0511L45 15.4426L48.1383 13.114ZM54.3138 21.4367C55.4382 20.6024 56.0743 19.6588 56.2221 18.6059C56.3698 17.5531 56.0333 16.4737 55.2126 15.3677C54.3851 14.2524 53.4393 13.6037 52.3752 13.4215C51.3111 13.2393 50.2168 13.5654 49.0923 14.3997L47.5301 15.5589L52.7515 22.5959L54.3138 21.4367Z"
		fill="url(#paint0_linear_182_10)" />
	<path
		d="M58.6713 14.5004C58.3151 13.6169 58.1806 12.7616 58.2678 11.9345C58.3657 11.103 58.6536 10.3744 59.1314 9.74866C59.6155 9.10797 60.2408 8.63313 61.0072 8.32414C61.6991 8.04519 62.3563 7.94109 62.9788 8.01185C63.6076 8.06767 64.158 8.2356 64.6297 8.51562L64.1147 7.23831L65.9509 6.49801L69.4979 15.2955L67.6617 16.0358L67.1338 14.7266C66.9925 15.2662 66.7116 15.7816 66.2909 16.2729C65.8703 16.7643 65.3194 17.1473 64.6381 17.4219C63.8824 17.7266 63.1132 17.814 62.3307 17.684C61.5439 17.5434 60.8248 17.2022 60.1733 16.6605C59.5281 16.1039 59.0275 15.3839 58.6713 14.5004ZM65.885 11.6291C65.6404 11.0224 65.3002 10.547 64.8645 10.2029C64.4394 9.85454 63.9775 9.64482 63.4786 9.57372C62.9797 9.50263 62.496 9.5615 62.0277 9.75032C61.5593 9.93915 61.1701 10.2322 60.8601 10.6294C60.5457 11.0161 60.3509 11.4844 60.2757 12.0345C60.2068 12.5696 60.2947 13.1405 60.5393 13.7472C60.7839 14.3539 61.1209 14.8368 61.5503 15.1958C61.9903 15.5505 62.4619 15.7687 62.9651 15.8505C63.4746 15.9173 63.9582 15.8584 64.4159 15.6739C64.8843 15.4851 65.2735 15.192 65.5836 14.7948C65.8936 14.3975 66.081 13.926 66.1455 13.3802C66.2165 12.8195 66.1296 12.2358 65.885 11.6291Z"
		fill="url(#paint1_linear_182_10)" />
	<path
		d="M71.8159 6.93346L72.8072 12.0897C72.8744 12.4391 73.0021 12.6775 73.1902 12.8049C73.3874 12.919 73.6833 12.938 74.0777 12.8622L75.2611 12.6347L75.5699 14.2407L74.0484 14.5332C73.1806 14.7001 72.4766 14.6251 71.9365 14.3082C71.3964 13.9913 71.0386 13.3764 70.8631 12.4635L69.8717 7.30725L68.7729 7.51853L68.4706 5.9463L69.5694 5.73503L69.1241 3.41895L71.0683 3.04515L71.5136 5.36123L73.779 4.92568L74.0812 6.4979L71.8159 6.93346Z"
		fill="url(#paint2_linear_182_10)" />
	<path
		d="M75.6626 9.21186C75.6614 8.25928 75.8553 7.41547 76.2446 6.68043C76.6453 5.94538 77.1839 5.37655 77.8605 4.97396C78.5486 4.55987 79.3058 4.35228 80.1321 4.35117C80.8781 4.35018 81.5268 4.49851 82.0781 4.79617C82.6408 5.08234 83.0889 5.44327 83.4223 5.87894L83.4205 4.50172L85.4002 4.49908L85.4129 13.9847L83.4331 13.9874L83.4313 12.5757C83.099 13.0237 82.6462 13.3973 82.0727 13.6965C81.4993 13.9957 80.8453 14.1457 80.1108 14.1467C79.2959 14.1478 78.5497 13.9422 77.872 13.53C77.1943 13.1062 76.6541 12.5216 76.2514 11.7762C75.8602 11.0192 75.6639 10.1644 75.6626 9.21186ZM83.4268 9.23593C83.4259 8.58175 83.2874 8.01383 83.0113 7.53216C82.7467 7.05049 82.3962 6.6837 81.9597 6.43179C81.5233 6.17988 81.0526 6.05426 80.5476 6.05494C80.0426 6.05561 79.5722 6.18248 79.1364 6.43556C78.7006 6.67715 78.3453 7.03915 78.0705 7.52155C77.8072 7.99245 77.676 8.55499 77.6768 9.20918C77.6777 9.86336 77.8105 10.437 78.0751 10.9302C78.3512 11.4233 78.7075 11.8016 79.1439 12.065C79.5919 12.3169 80.0626 12.4425 80.5561 12.4418C81.0611 12.4411 81.5315 12.3143 81.9673 12.0612C82.403 11.8081 82.7526 11.4404 83.0159 10.958C83.2907 10.4641 83.4277 9.89011 83.4268 9.23593Z"
		fill="url(#paint3_linear_182_10)" />
	<path
		d="M89.4389 13.236L93.3957 14.0788L93.0658 15.6278L87.1894 14.3762L89.6819 2.67407L91.6014 3.0829L89.4389 13.236Z"
		fill="url(#paint4_linear_182_10)" />
	<path
		d="M95.3828 11.1818C95.775 10.3137 96.3001 9.62533 96.9581 9.11662C97.6266 8.61264 98.3521 8.31701 99.1346 8.22975C99.9322 8.13675 100.708 8.26036 101.461 8.60059C102.14 8.90774 102.67 9.31069 103.049 9.80944C103.443 10.3025 103.702 10.8162 103.826 11.3507L104.393 10.0956L106.197 10.9107L102.292 19.5551L100.488 18.7399L101.069 17.4535C100.581 17.7243 100.015 17.8776 99.3689 17.9133C98.7231 17.9489 98.0655 17.8155 97.3961 17.5131C96.6535 17.1776 96.0587 16.6822 95.6118 16.0269C95.1695 15.3611 94.919 14.6056 94.8601 13.7604C94.8163 12.9094 94.9906 12.0499 95.3828 11.1818ZM102.444 14.4099C102.713 13.8138 102.822 13.2393 102.769 12.6867C102.727 12.1387 102.559 11.6599 102.266 11.2502C101.972 10.8406 101.596 10.5318 101.135 10.3239C100.675 10.1159 100.194 10.0372 99.693 10.0878C99.1963 10.1279 98.7233 10.3108 98.2738 10.6367C97.8395 10.9568 97.4877 11.415 97.2183 12.0111C96.949 12.6073 96.833 13.1846 96.8703 13.743C96.9182 14.3061 97.0865 14.7978 97.3752 15.2179C97.6792 15.6323 98.056 15.9411 98.5057 16.1443C98.9659 16.3522 99.4467 16.4309 99.9481 16.3803C100.45 16.3298 100.92 16.1392 101.359 15.8086C101.813 15.4723 102.175 15.0061 102.444 14.4099Z"
		fill="url(#paint5_linear_182_10)" />
	<path
		d="M109.745 14.9717C110.291 14.8168 110.878 14.8041 111.506 14.9335C112.151 15.0611 112.753 15.3449 113.312 15.785C113.97 16.3031 114.441 16.9295 114.725 17.6639C115.008 18.3983 115.073 19.1793 114.918 20.0069C114.77 20.8254 114.402 21.6089 113.813 22.3575C113.224 23.106 112.542 23.6572 111.766 24.0111C110.998 24.3559 110.213 24.4823 109.409 24.3901C108.621 24.2959 107.903 23.9933 107.253 23.4822C106.676 23.0279 106.251 22.5106 105.977 21.9302C105.713 21.357 105.588 20.7915 105.604 20.234L104.752 21.3162L103.21 20.1024L111.089 10.0919L112.631 11.3057L109.745 14.9717ZM112.244 21.1224C112.648 20.6083 112.888 20.0812 112.962 19.5411C113.053 18.9991 112.997 18.4949 112.794 18.0287C112.608 17.5606 112.316 17.1703 111.919 16.858C111.532 16.5528 111.084 16.361 110.576 16.2825C110.077 16.2112 109.57 16.2798 109.056 16.4882C108.55 16.7037 108.095 17.0685 107.691 17.5825C107.286 18.0966 107.035 18.6291 106.937 19.1802C106.855 19.7293 106.908 20.238 107.094 20.7061C107.29 21.1813 107.581 21.5716 107.969 21.8768C108.366 22.1891 108.814 22.381 109.313 22.4523C109.828 22.5217 110.342 22.4441 110.854 22.2196C111.376 22.0022 111.839 21.6364 112.244 21.1224Z"
		fill="url(#paint6_linear_182_10)" />
	<path
		d="M49.4099 46.7904C46.9899 51.9264 45.901 57.2973 46.27 62.8658C47.1079 75.5087 53.1959 84.9529 64.2458 91.1051C69.1083 93.8123 73.5961 95.2222 79.983 95.7922C83.786 96.1316 86.5118 96.0718 89.7556 95.5004C90.1064 95.4386 90.461 95.3974 90.815 95.3561C90.8637 95.3504 90.9188 95.3999 91.2282 95.5419C88.895 96.5245 86.5824 96.8186 84.3312 97.0684C74.4559 98.1646 65.4855 95.7777 57.6478 89.5942C41.7723 77.0694 39.2257 53.9529 52.0075 38.339C58.3022 30.6495 66.4963 26.3471 76.3432 25.2236C81.3866 24.6481 89.017 25.5964 90.4809 26.8282C90.3325 27.1232 90.0753 27.0078 89.8631 26.9715C84.2537 26.0107 78.7481 26.4225 73.2763 27.9872C69.7761 28.988 66.3098 30.009 63.1486 31.8702C57.0776 35.4446 52.5172 40.4038 49.4099 46.7904Z"
		fill="url(#paint7_linear_182_10)" />
	<path
		d="M109.204 40.0406C115.291 47.4709 116.596 55.0475 116.011 63.6808C115.554 70.4214 113.437 76.6901 109.336 82.1205C106.502 85.8737 102.766 88.635 98.5384 90.7091C96.7205 91.6011 94.8492 92.3641 92.9132 92.9627C92.5848 93.0642 92.2535 93.2209 91.7052 93.0445C105.67 86.7882 113.682 76.3838 113.591 61.01C113.5 45.6605 105.456 35.3208 91.5395 29.3092C94.7242 28.6858 104.087 33.7958 109.204 40.0406Z"
		fill="url(#paint8_linear_182_10)" />
	<path
		d="M72.3501 56.5084C71.8262 56.2147 71.3737 55.9215 70.8885 55.7C69.9692 55.2803 69.3301 54.7662 69.4727 53.5799C69.5275 53.1244 69.5348 52.8427 69.9644 52.5952C72.4106 51.1856 74.8368 49.7413 77.2754 48.3185C78.1108 47.8312 79.7481 48.6833 79.7485 49.6706C79.7495 52.4628 79.6745 55.2551 79.6219 58.0471C79.6192 58.1888 79.5795 58.3535 79.499 58.466C79.0539 59.0887 77.4195 59.4333 76.7308 59.0407C75.2845 58.2163 73.8475 57.3754 72.3501 56.5084Z"
		fill="url(#paint9_linear_182_10)" />
	<path
		d="M70.0284 67.216C72.3755 65.8575 74.6711 64.5423 76.9469 63.1939C77.4768 62.8799 77.8067 63.0098 78.3649 63.2557C79.76 63.8705 79.7731 64.8383 79.6896 66.1276C79.5479 68.3171 79.6498 70.5219 79.6331 72.7202C79.6252 73.7614 78.2676 74.568 77.3665 74.0547C74.9125 72.6569 72.4658 71.246 70.0295 69.8176C69.2406 69.355 69.2257 67.7752 70.0284 67.216Z"
		fill="url(#paint10_linear_182_10)" />
	<path
		d="M90.3412 67.6359C90.3765 68.1674 90.3741 68.6391 90.3933 69.1099C90.4076 69.4596 90.2136 69.6495 89.9392 69.8084C87.4228 71.2656 84.9134 72.735 82.3898 74.1796C81.7732 74.5325 80.2431 73.6587 80.2379 72.9467C80.2174 70.1275 80.2303 67.3081 80.2242 64.4889C80.2234 64.1162 80.4393 63.9431 80.7074 63.7166C81.8417 62.7582 82.8176 63.0047 83.9789 63.7881C86.0163 65.1624 88.2699 66.1964 90.3412 67.6359Z"
		fill="url(#paint11_linear_182_10)" />
	<path
		d="M91.0337 66.8201C90.6048 67.0779 90.2921 66.9058 89.9758 66.7217C87.6385 65.361 85.3023 63.9984 82.9592 62.6476C82.5377 62.4046 82.4104 61.9451 82.4104 61.6305C82.4104 61.3716 82.4104 61.2264 82.4104 60.9675C82.4104 59.8625 82.9232 59.6915 83.7007 59.2557C85.7995 58.0793 87.8721 56.856 89.9689 55.6758C90.8891 55.158 92.3204 55.9916 92.323 57.0339C92.3298 59.8271 92.2695 62.6215 92.3403 65.4128C92.3653 66.4018 91.6216 66.4365 91.0337 66.8201Z"
		fill="url(#paint12_linear_182_10)" />
	<path
		d="M75.2072 63.6532C73.4013 64.7004 71.659 65.7274 69.9022 66.7291C68.9836 67.2529 67.5628 66.4057 67.56 65.3424C67.553 62.6067 67.5571 59.8711 67.5609 57.1354C67.5626 55.9387 68.827 55.1373 69.9065 55.7142C71.4533 56.5408 72.9549 57.4514 74.4777 58.323C75.2777 58.7809 76.0776 59.2395 76.8856 59.6832C77.2988 59.91 77.3083 60.2307 77.3861 60.6784C77.6946 62.4544 76.4851 63.016 75.2072 63.6532Z"
		fill="url(#paint13_linear_182_10)" />
	<path
		d="M86.5802 50.6647C87.7094 51.3335 88.7892 51.9585 89.848 52.6172C90.6019 53.0862 90.5934 54.7344 89.8338 55.1783C87.5529 56.5112 85.2718 57.8444 82.9683 59.1376C81.8367 59.7728 80.1943 58.6866 80.2109 57.4103C80.2438 54.8874 80.2252 52.3638 80.2307 49.8405C80.2333 48.6336 81.596 47.8348 82.6535 48.4287C83.9478 49.1556 85.2328 49.899 86.5802 50.6647Z"
		fill="url(#paint14_linear_182_10)" />
	<path
		d="M67.7383 50.1315C67.9169 47.8624 68.0786 45.6733 68.2813 43.488C68.3568 42.673 69.8006 41.8762 70.5011 42.2123C72.5369 43.1894 74.574 44.164 76.6084 45.144C77.7883 45.7125 77.9416 46.0516 77.6722 47.3289C77.6084 47.6309 77.419 47.7705 77.1774 47.9078C74.7757 49.2726 72.3377 50.5803 70 52.0472C69.152 52.5794 68.6791 52.0545 68.0672 51.8202C67.4831 51.5965 67.7247 51.0812 67.7284 50.6585C67.7297 50.51 67.7346 50.3615 67.7383 50.1315Z"
		fill="url(#paint15_linear_182_10)" />
	<path
		d="M91.9557 74.4567C91.9437 76.0311 91.7555 77.5057 91.5938 78.9817C91.5092 79.7545 90.1208 80.5467 89.4098 80.2034C87.1336 79.1044 84.8637 77.9915 82.6077 76.8517C81.8488 76.4683 81.8473 74.972 82.605 74.5707C85.1562 73.2194 87.6106 71.7041 90.0921 70.2341C90.8701 69.7732 92.1418 70.518 92.1239 71.4354C92.1048 72.4146 92.0155 73.3924 91.9557 74.4567Z"
		fill="url(#paint16_linear_182_10)" />
	<path
		d="M67.9296 70.6709C68.8367 69.8718 69.5972 70.1027 70.4993 70.6642C72.64 71.9965 74.8524 73.2139 77.038 74.474C77.4308 74.7004 77.8421 74.8942 77.7219 75.4755C77.6064 76.0345 77.8748 76.6484 77.0503 77.0197C74.8606 78.0057 72.7329 79.1285 70.5753 80.1865C69.9182 80.5087 68.3565 79.7855 68.2893 79.065C68.0439 76.4376 67.8601 73.8045 67.6576 71.1731C67.6433 70.988 67.7215 70.8259 67.9296 70.6709Z"
		fill="url(#paint17_linear_182_10)" />
	<path
		d="M58.3689 60.2767C60.491 58.5931 62.7446 57.2071 64.9342 55.7296C65.7361 55.1886 66.9473 55.9011 66.95 56.8727C66.958 59.7535 66.9215 62.6346 66.9566 65.5148C66.9651 66.2113 66.5268 66.3987 66.0764 66.6923C65.6551 66.9669 65.3151 66.9056 64.9328 66.6476C63.2339 65.5013 61.5786 64.278 59.8076 63.2551C58.5911 62.5526 58.141 61.6548 58.3689 60.2767Z"
		fill="url(#paint18_linear_182_10)" />
	<path
		d="M94.4145 66.8946C92.9182 66.3103 92.9227 66.3103 92.9245 64.8457C92.9275 62.2634 92.9503 59.6807 92.9065 57.0992C92.8946 56.395 93.1718 56.0381 93.7469 55.7041C94.2994 55.3831 94.695 55.5566 95.133 55.8533C97.0498 57.1514 98.9757 58.4363 100.885 59.7451C101.95 60.4753 101.902 61.9272 100.83 62.6571C98.844 64.0107 96.8689 65.3809 94.8852 66.7384C94.7675 66.819 94.6154 66.8492 94.4145 66.8946Z"
		fill="url(#paint19_linear_182_10)" />
	<path
		d="M72.8737 42.7886C72.1685 42.4551 71.5288 42.1404 70.879 41.8481C70.4107 41.6374 70.2426 41.2898 70.2351 40.7877C70.2278 40.3036 70.4343 40.0073 70.8442 39.8C72.9908 38.7143 75.1232 37.5997 77.2853 36.5457C78.5532 35.9277 79.7962 36.7436 79.7878 38.1282C79.7772 39.8801 79.7741 41.6323 79.7412 43.3838C79.7167 44.6798 78.3373 45.4854 77.17 44.9091C75.758 44.2122 74.3465 43.5144 72.8737 42.7886Z"
		fill="url(#paint20_linear_182_10)" />
	<path
		d="M67.2834 71.8113C67.3369 74.0874 67.5829 76.2668 67.7877 78.4489C67.841 79.0157 67.7926 79.4649 67.2288 79.8142C66.664 80.1642 66.2709 80.0136 65.7821 79.6831C63.8898 78.4038 61.9636 77.1747 60.0673 75.9012C58.742 75.0112 58.7699 73.7062 60.1158 72.915C61.6244 72.0283 63.137 71.1478 64.6634 70.2923C65.7526 69.6818 67.1549 70.4677 67.2834 71.8113Z"
		fill="url(#paint21_linear_182_10)" />
	<path
		d="M64.7544 67.1061C65.4909 67.9389 65.276 69.4123 64.3959 69.9193C62.8011 70.8379 61.2021 71.7493 59.6068 72.6671C58.7682 73.1497 57.4178 72.5057 57.3401 71.5424C57.1423 69.0893 56.8888 66.6402 56.8407 64.1754C56.8279 63.5195 57.0791 63.1207 57.6052 62.7988C58.1587 62.4602 58.5037 62.8731 58.8771 63.1236C60.8245 64.43 62.7611 65.7527 64.7544 67.1061Z"
		fill="url(#paint22_linear_182_10)" />
	<path
		d="M66.684 42.3993C67.743 42.662 67.8538 43.2941 67.7479 44.232C67.5154 46.2903 67.4137 48.3641 67.2901 50.4334C67.1948 52.0282 65.8578 52.7571 64.4672 51.9611C62.9485 51.0917 61.4158 50.2468 59.8893 49.3912C59.1123 48.9557 58.8226 47.4399 59.5281 46.9224C61.7943 45.26 64.077 43.6105 66.684 42.3993Z"
		fill="url(#paint23_linear_182_10)" />
	<path
		d="M99.3593 72.6946C100.218 73.1591 100.988 73.572 100.705 74.7456C100.616 75.1172 100.549 75.4124 100.226 75.6247C98.0411 77.0607 95.8676 78.514 93.6695 79.9294C93.0248 80.3446 91.9826 79.6667 92.0768 78.892C92.3782 76.4153 92.5621 73.9333 92.63 71.4389C92.6554 70.5051 94.2275 69.7618 95.0464 70.2308C96.4644 71.0428 97.8849 71.8505 99.3593 72.6946Z"
		fill="url(#paint24_linear_182_10)" />
	<path
		d="M61.2829 57.5942C60.3757 58.223 59.5366 58.8383 58.6651 59.4036C57.8527 59.9306 56.8346 59.3863 56.8646 58.4161C56.9418 55.9257 57.0403 53.4333 57.3611 50.9599C57.5288 49.6673 58.7317 49.1765 59.8581 49.8475C61.3379 50.729 62.8336 51.5845 64.3346 52.4296C65.4873 53.0786 65.5756 54.7674 64.4666 55.5092C63.4301 56.2024 62.3806 56.8764 61.2829 57.5942Z"
		fill="url(#paint25_linear_182_10)" />
	<path
		d="M103.011 65.3178C102.846 67.4716 102.699 69.5434 102.512 71.6117C102.427 72.5565 101.152 73.1717 100.329 72.6973C98.732 71.7772 97.1338 70.8595 95.5464 69.9236C94.3423 69.2136 94.3549 67.6001 95.5151 66.8353C97.3754 65.6091 99.2044 64.3355 101.055 63.0946C101.375 62.8802 101.646 62.4531 102.146 62.7693C102.636 63.0794 103.103 63.3794 103.033 64.0761C102.995 64.459 103.017 64.848 103.011 65.3178Z"
		fill="url(#paint26_linear_182_10)" />
	<path
		d="M98.2072 50.9271C98.8032 50.58 99.3462 50.2719 99.8804 49.9495C101.294 49.0967 102.468 49.6497 102.602 51.3115C102.787 53.6179 102.868 55.9324 103.033 58.2406C103.08 58.8863 102.755 59.1974 102.284 59.5195C101.803 59.8479 101.51 59.5366 101.173 59.313C99.2399 58.0335 97.3038 56.759 95.3788 55.468C94.3362 54.7688 94.4297 53.103 95.5256 52.4775C96.4033 51.9765 97.2755 51.4659 98.2072 50.9271Z"
		fill="url(#paint27_linear_182_10)" />
	<path
		d="M72.9858 83.7096C72.2951 83.3497 71.6764 82.9893 71.0248 82.7034C70.3666 82.4146 70.2221 81.9083 70.2187 81.2652C70.2155 80.66 70.6894 80.5622 71.0803 80.3883C73.1429 79.4708 75.1893 78.5222 77.1736 77.442C78.1617 76.9041 79.7432 77.8121 79.7406 78.9336C79.7361 80.8924 79.6912 82.8516 79.6287 84.8095C79.6037 85.5911 78.3348 86.3725 77.6685 86.0455C76.1223 85.2867 74.5845 84.5107 72.9858 83.7096Z"
		fill="url(#paint28_linear_182_10)" />
	<path
		d="M80.2286 40.3577C80.2285 39.4956 80.2248 38.7225 80.2292 37.9495C80.2361 36.7411 81.2754 36.0108 82.4111 36.5067C83.9089 37.1606 85.3683 37.9035 86.8334 38.6298C87.5525 38.9863 88.2338 39.4199 88.9576 39.7654C89.4968 40.0228 89.6322 40.4213 89.6647 40.9757C89.7005 41.5871 89.2748 41.7143 88.8805 41.9071C86.7701 42.9396 84.6592 43.9711 82.5463 44.9986C81.5665 45.475 80.171 44.5724 80.1865 43.4782C80.2007 42.4677 80.2146 41.4572 80.2286 40.3577Z"
		fill="url(#paint29_linear_182_10)" />
	<path
		d="M80.2438 81.7551C80.2438 80.7457 80.2381 79.8255 80.2452 78.9054C80.2538 77.7897 81.6188 76.9298 82.5961 77.4224C84.6112 78.4383 86.6187 79.4678 88.6907 80.3692C89.1219 80.5568 89.7099 80.6451 89.716 81.4165C89.7219 82.1638 89.3401 82.4577 88.7725 82.7389C86.5914 83.8195 84.4214 84.9227 82.2468 86.0164C81.531 86.3764 80.2709 85.622 80.2438 84.7827C80.2123 83.8042 80.2411 82.8238 80.2438 81.7551Z"
		fill="url(#paint30_linear_182_10)" />
	<path
		d="M92.2823 42.6836C92.6423 42.5243 92.9444 42.4 93.2374 42.257C94.6304 41.5774 95.7511 42.2293 95.8517 43.7802C95.9763 45.7024 96.09 47.6254 96.2359 49.546C96.2805 50.134 96.0452 50.4417 95.5423 50.7362C95.0504 51.0243 94.7132 50.9779 94.2511 50.7029C92.2112 49.4887 90.1745 48.2639 88.0792 47.1509C87.3025 46.7384 87.3935 46.1475 87.3511 45.5193C87.3101 44.9115 87.8375 44.8337 88.2125 44.6478C89.5418 43.9886 90.8834 43.354 92.2823 42.6836Z"
		fill="url(#paint31_linear_182_10)" />
	<path
		d="M101.645 41.8824C100.763 42.383 99.9441 42.8621 99.1121 43.3174C97.8061 44.032 96.9385 43.4996 96.8585 41.9791C96.784 40.5601 96.6686 39.1432 96.5726 37.7253C96.5425 37.2814 96.454 36.7728 96.8669 36.492C97.34 36.1704 97.8402 36.3855 98.2774 36.677C99.6587 37.598 101.052 38.5028 102.408 39.4593C103.331 40.1096 103.238 40.9777 102.243 41.5419C102.063 41.6443 101.882 41.7474 101.645 41.8824Z"
		fill="url(#paint32_linear_182_10)" />
	<defs>
		<linearGradient id="paint0_linear_182_10" x1="80.5066" y1="-2.70572" x2="80.5066" y2="20.4274"
			gradientUnits="userSpaceOnUse">
			<stop stop-color="#5E847A" />
			<stop offset="1" stop-color="#007168" />
		</linearGradient>
		<linearGradient id="paint1_linear_182_10" x1="80.5066" y1="-2.70572" x2="80.5066" y2="20.4274"
			gradientUnits="userSpaceOnUse">
			<stop stop-color="#5E847A" />
			<stop offset="1" stop-color="#007168" />
		</linearGradient>
		<linearGradient id="paint2_linear_182_10" x1="80.5066" y1="-2.70572" x2="80.5066" y2="20.4274"
			gradientUnits="userSpaceOnUse">
			<stop stop-color="#5E847A" />
			<stop offset="1" stop-color="#007168" />
		</linearGradient>
		<linearGradient id="paint3_linear_182_10" x1="80.5066" y1="-2.70572" x2="80.5066" y2="20.4274"
			gradientUnits="userSpaceOnUse">
			<stop stop-color="#5E847A" />
			<stop offset="1" stop-color="#007168" />
		</linearGradient>
		<linearGradient id="paint4_linear_182_10" x1="80.5066" y1="-2.70572" x2="80.5066" y2="20.4274"
			gradientUnits="userSpaceOnUse">
			<stop stop-color="#5E847A" />
			<stop offset="1" stop-color="#007168" />
		</linearGradient>
		<linearGradient id="paint5_linear_182_10" x1="80.5066" y1="-2.70572" x2="80.5066" y2="20.4274"
			gradientUnits="userSpaceOnUse">
			<stop stop-color="#5E847A" />
			<stop offset="1" stop-color="#007168" />
		</linearGradient>
		<linearGradient id="paint6_linear_182_10" x1="80.5066" y1="-2.70572" x2="80.5066" y2="20.4274"
			gradientUnits="userSpaceOnUse">
			<stop stop-color="#5E847A" />
			<stop offset="1" stop-color="#007168" />
		</linearGradient>
		<linearGradient id="paint7_linear_182_10" x1="80" y1="25.0511" x2="80" y2="97.3259"
			gradientUnits="userSpaceOnUse">
			<stop stop-color="#007168" />
			<stop offset="1" stop-color="#5D8379" />
		</linearGradient>
		<linearGradient id="paint8_linear_182_10" x1="80" y1="25.0511" x2="80" y2="97.3259"
			gradientUnits="userSpaceOnUse">
			<stop stop-color="#007168" />
			<stop offset="1" stop-color="#5D8379" />
		</linearGradient>
		<linearGradient id="paint9_linear_182_10" x1="74.6007" y1="48.1772" x2="74.6007" y2="59.2075"
			gradientUnits="userSpaceOnUse">
			<stop stop-color="#007168" />
			<stop offset="1" stop-color="#5D8379" />
		</linearGradient>
		<linearGradient id="paint10_linear_182_10" x1="74.575" y1="63.0089" x2="74.575" y2="74.2136"
			gradientUnits="userSpaceOnUse">
			<stop stop-color="#007168" />
			<stop offset="1" stop-color="#5D8379" />
		</linearGradient>
		<linearGradient id="paint11_linear_182_10" x1="85.3091" y1="63.0938" x2="85.3091" y2="74.2605"
			gradientUnits="userSpaceOnUse">
			<stop stop-color="#007168" />
			<stop offset="1" stop-color="#5D8379" />
		</linearGradient>
		<linearGradient id="paint12_linear_182_10" x1="87.3757" y1="55.5178" x2="87.3757" y2="66.9509"
			gradientUnits="userSpaceOnUse">
			<stop stop-color="#007168" />
			<stop offset="1" stop-color="#5D8379" />
		</linearGradient>
		<linearGradient id="paint13_linear_182_10" x1="72.4955" y1="55.5229" x2="72.4955" y2="66.8884"
			gradientUnits="userSpaceOnUse">
			<stop stop-color="#007168" />
			<stop offset="1" stop-color="#5D8379" />
		</linearGradient>
		<linearGradient id="paint14_linear_182_10" x1="85.3096" y1="48.2279" x2="85.3096" y2="59.3244"
			gradientUnits="userSpaceOnUse">
			<stop stop-color="#007168" />
			<stop offset="1" stop-color="#5D8379" />
		</linearGradient>
		<linearGradient id="paint15_linear_182_10" x1="72.7309" y1="42.1334" x2="72.7309" y2="52.2776"
			gradientUnits="userSpaceOnUse">
			<stop stop-color="#007168" />
			<stop offset="1" stop-color="#5D8379" />
		</linearGradient>
		<linearGradient id="paint16_linear_182_10" x1="87.0808" y1="70.0937" x2="87.0808" y2="80.2858"
			gradientUnits="userSpaceOnUse">
			<stop stop-color="#007168" />
			<stop offset="1" stop-color="#5D8379" />
		</linearGradient>
		<linearGradient id="paint17_linear_182_10" x1="72.6996" y1="70.1539" x2="72.6996" y2="80.2653"
			gradientUnits="userSpaceOnUse">
			<stop stop-color="#007168" />
			<stop offset="1" stop-color="#5D8379" />
		</linearGradient>
		<linearGradient id="paint18_linear_182_10" x1="62.6343" y1="55.5429" x2="62.6343" y2="66.8717"
			gradientUnits="userSpaceOnUse">
			<stop stop-color="#007168" />
			<stop offset="1" stop-color="#5D8379" />
		</linearGradient>
		<linearGradient id="paint19_linear_182_10" x1="97.2828" y1="55.532" x2="97.2828" y2="66.8946"
			gradientUnits="userSpaceOnUse">
			<stop stop-color="#007168" />
			<stop offset="1" stop-color="#5D8379" />
		</linearGradient>
		<linearGradient id="paint20_linear_182_10" x1="75.0114" y1="36.3363" x2="75.0114" y2="45.0984"
			gradientUnits="userSpaceOnUse">
			<stop stop-color="#007168" />
			<stop offset="1" stop-color="#5D8379" />
		</linearGradient>
		<linearGradient id="paint21_linear_182_10" x1="63.4469" y1="70.0823" x2="63.4469" y2="80.0145"
			gradientUnits="userSpaceOnUse">
			<stop stop-color="#007168" />
			<stop offset="1" stop-color="#5D8379" />
		</linearGradient>
		<linearGradient id="paint22_linear_182_10" x1="61.0202" y1="62.6709" x2="61.0202" y2="72.8312"
			gradientUnits="userSpaceOnUse">
			<stop stop-color="#007168" />
			<stop offset="1" stop-color="#5D8379" />
		</linearGradient>
		<linearGradient id="paint23_linear_182_10" x1="63.4532" y1="42.3993" x2="63.4532" y2="52.2856"
			gradientUnits="userSpaceOnUse">
			<stop stop-color="#007168" />
			<stop offset="1" stop-color="#5D8379" />
		</linearGradient>
		<linearGradient id="paint24_linear_182_10" x1="96.4179" y1="70.0862" x2="96.4179" y2="80.0556"
			gradientUnits="userSpaceOnUse">
			<stop stop-color="#007168" />
			<stop offset="1" stop-color="#5D8379" />
		</linearGradient>
		<linearGradient id="paint25_linear_182_10" x1="61.0574" y1="49.5475" x2="61.0574" y2="59.6089"
			gradientUnits="userSpaceOnUse">
			<stop stop-color="#007168" />
			<stop offset="1" stop-color="#5D8379" />
		</linearGradient>
		<linearGradient id="paint26_linear_182_10" x1="98.842" y1="62.6566" x2="98.842" y2="72.8611"
			gradientUnits="userSpaceOnUse">
			<stop stop-color="#007168" />
			<stop offset="1" stop-color="#5D8379" />
		</linearGradient>
		<linearGradient id="paint27_linear_182_10" x1="98.8427" y1="49.5528" x2="98.8427" y2="59.6621"
			gradientUnits="userSpaceOnUse">
			<stop stop-color="#007168" />
			<stop offset="1" stop-color="#5D8379" />
		</linearGradient>
		<linearGradient id="paint28_linear_182_10" x1="74.9797" y1="77.2829" x2="74.9797" y2="86.1219"
			gradientUnits="userSpaceOnUse">
			<stop stop-color="#007168" />
			<stop offset="1" stop-color="#5D8379" />
		</linearGradient>
		<linearGradient id="paint29_linear_182_10" x1="84.9266" y1="36.3494" x2="84.9266" y2="45.129"
			gradientUnits="userSpaceOnUse">
			<stop stop-color="#007168" />
			<stop offset="1" stop-color="#5D8379" />
		</linearGradient>
		<linearGradient id="paint30_linear_182_10" x1="84.9726" y1="77.2803" x2="84.9726" y2="86.1085"
			gradientUnits="userSpaceOnUse">
			<stop stop-color="#007168" />
			<stop offset="1" stop-color="#5D8379" />
		</linearGradient>
		<linearGradient id="paint31_linear_182_10" x1="91.795" y1="41.9892" x2="91.795" y2="50.9318"
			gradientUnits="userSpaceOnUse">
			<stop stop-color="#007168" />
			<stop offset="1" stop-color="#5D8379" />
		</linearGradient>
		<linearGradient id="paint32_linear_182_10" x1="99.7958" y1="36.3318" x2="99.7958" y2="43.6309"
			gradientUnits="userSpaceOnUse">
			<stop stop-color="#007168" />
			<stop offset="1" stop-color="#5D8379" />
		</linearGradient>
	</defs>
</svg>
	